# xmcd
#
# Track frame offsets: 
#        150
#        1415
#        5690
#        23205
#        25420
#        48375
#        82800
#        142650
#        170610
#        199395
#        237235
#
# Disc length: 3545 seconds
#
# Revision: 2
# Processed by: cddbd v1.5.2PL0 Copyright (c) Steve Scherf et al.
# Submitted via: ExactAudioCopy v0.99pb5
#
DISCID=830dd70b
DTITLE=Eugene Hideaway Bridges Band - Live At The Red Box Dublin
DYEAR=1997
DGENRE=Blues
TTITLE0=Verbal Intro
TTITLE1=Intro Music
TTITLE2=Hideaway
TTITLE3=Introduces Band
TTITLE4=Doctor Can You Tell Me
TTITLE5=Take Home Pay
TTITLE6=Aching Heart
TTITLE7=Silver Slipper
TTITLE8=Tears Of A Fool
TTITLE9=Good Thang
TTITLE10=If You Don't Want To Leave Me
EXTD=
EXTT0=
EXTT1=
EXTT2=
EXTT3=
EXTT4=
EXTT5=
EXTT6=
EXTT7=
EXTT8=
EXTT9=
EXTT10=
PLAYORDER=
